0
SECTION
2
HEADER
9
$INSUNITS
70
4
9
$ACADVER
1
AC1014
9
$HANDSEED
5
FFFF
0
ENDSEC
0
SECTION
2
TABLES
0
TABLE
2
VPORT
5
8
100
AcDbSymbolTable
0
ENDTAB
0
TABLE
2
LTYPE
5
5
100
AcDbSymbolTable
0
LTYPE
5
14
100
AcDbSymbolTableRecord
100
AcDbLinetypeTableRecord
2
BYBLOCK
70
0
0
LTYPE
5
15
100
AcDbSymbolTableRecord
100
AcDbLinetypeTableRecord
2
BYLAYER
70
0
0
ENDTAB
0
TABLE
2
LAYER
5
2
100
AcDbSymbolTable
70
2
0
LAYER
5
50
100
AcDbSymbolTableRecord
100
AcDbLayerTableRecord
2
0
70
0
6
CONTINUOUS
0
ENDTAB
0
TABLE
2
STYLE
5
3
100
AcDbSymbolTable
70
1
0
STYLE
5
11
100
AcDbSymbolTableRecord
100
AcDbTextStyleTableRecord
2
STANDARD
70
0
0
ENDTAB
0
TABLE
2
VIEW
5
6
100
AcDbSymbolTable
70
0
0
ENDTAB
0
TABLE
2
UCS
5
7
100
AcDbSymbolTable
70
0
0
ENDTAB
0
TABLE
2
APPID
5
9
100
AcDbSymbolTable
70
2
0
APPID
5
12
100
AcDbSymbolTableRecord
100
AcDbRegAppTableRecord
2
ACAD
70
0
0
ENDTAB
0
TABLE
2
DIMSTYLE
5
A
100
AcDbSymbolTable
70
1
0
ENDTAB
0
TABLE
2
BLOCK_RECORD
5
1
100
AcDbSymbolTable
70
1
0
BLOCK_RECORD
5
1F
100
AcDbSymbolTableRecord
100
AcDbBlockTableRecord
2
*MODEL_SPACE
0
BLOCK_RECORD
5
1B
100
AcDbSymbolTableRecord
100
AcDbBlockTableRecord
2
*PAPER_SPACE
0
ENDTAB
0
ENDSEC
0
SECTION
2
BLOCKS
0
BLOCK
5
20
100
AcDbEntity
100
AcDbBlockBegin
2
*MODEL_SPACE
0
ENDBLK
5
21
100
AcDbEntity
100
AcDbBlockEnd
0
BLOCK
5
1C
100
AcDbEntity
100
AcDbBlockBegin
2
*PAPER_SPACE
0
ENDBLK
5
1D
100
AcDbEntity
100
AcDbBlockEnd
0
ENDSEC
0
SECTION
2
ENTITIES
0
LWPOLYLINE
5
100
100
AcDbEntity
8
0
100
AcDbPolyline
90
36
70
1
43
0.0
10
-125.90712718695244
20
61.454239772752018
10
-125.90713315947241
20
47.001659482466629
42
-0.41421356237309243
10
-129.90713481246951
20
43.001661135464538
10
-142.50713481246905
20
43.001666342406601
42
-0.41421356237309825
10
-146.50713315947121
20
47.001667995403778
10
-146.50712717607919
20
61.480557100421827
42
0.26794930316096055
10
-147.50712717607939
20
63.212608734489422
10
-177.28565099245105
20
80.405247475932583
42
0.41421356237309581
10
-180.01770180001958
20
79.673196668363516
10
-295.51770179997624
20
-120.37867160586669
42
0.4142135623730937
10
-294.78565099240677
20
-123.1107224134354
10
-264.97018633972522
20
-140.32468895666537
42
0.2679490817011867
10
-262.97018705549482
20
-140.32468936991486
10
-250.50391071268342
20
-133.12728823650784
42
-0.41421356237309664
10
-245.03980970258536
20
-134.59139210968257
10
-238.73981421193076
20
-145.50331480083776
42
-0.41421356237309792
10
-240.20391808510544
20
-150.96741581093585
10
-252.79301129477227
20
-158.23572522781038
42
0.26794930316094429
10
-253.79301201054116
20
-159.9677764486284
10
-253.79301201053349
20
-194.23753743529068
42
0.41421356237309503
10
-251.79301201053349
20
-196.23753743529025
10
-20.793012010533506
20
-196.23753743524156
42
0.41421356237309764
10
-18.793012010533914
20
-194.23753743524114
10
-18.793012010541194
20
-159.92509448190441
42
0.26794908170110288
10
-19.793011294771997
20
-158.19304408758623
10
-32.309291012111046
20
-150.96675972706419
42
-0.41421356237309243
10
-33.773390369211384
20
-145.50265750688769
10
-27.473381335156088
20
-134.59073218565587
42
-0.41421281198269361
10
-22.009287989990753
20
-133.12662770457567
10
-9.4701463652194473
20
-140.36606857254435
42
0.26794861667702197
10
-7.4701500869553952
20
-140.36606642380391
10
22.308296825720859
20
-123.173472082713
42
0.41421356237309537
10
23.040347633289294
20
-120.44142127514418
10
-92.459652366751925
20
79.610446999037947
42
0.41421356237308293
10
-95.191703174320907
20
80.342497806606275
10
-124.90712718695336
20
63.186289753822031
42
0.26794908170127479
0
CIRCLE
5
101
100
AcDbEntity
8
0
100
AcDbCircle
10
-52.793012010481625
20
-166.1120558662702
30
1.0658141036401503e-13
40
2.7000000000000135
210
3.0043538661104872e-16
220
1.2621774483536192e-29
230
1
0
CIRCLE
5
102
100
AcDbEntity
8
0
100
AcDbCircle
10
-267.53693968644023
20
-131.9145699907223
30
-1.0658141036401503e-13
40
2.6999999999999957
210
3.0043543955060792e-16
220
1.2621774483536192e-29
230
1
0
CIRCLE
5
103
100
AcDbEntity
8
0
100
AcDbCircle
10
-116.54908433460176
20
61.209095053234151
30
-2.1316282072803006e-13
40
2.7000000000000135
210
3.0043538661104872e-16
220
1.2621774483536192e-29
230
1
0
CIRCLE
5
104
100
AcDbEntity
8
0
100
AcDbCircle
10
-156.03693968648619
20
61.209095053234172
30
-2.1316282072803006e-13
40
2.7000000000000135
210
3.0043538661104872e-16
220
1.2621774483536192e-29
230
1
0
CIRCLE
5
105
100
AcDbEntity
8
0
100
AcDbCircle
10
-247.79301201053968
20
-166.2375374352894
30
1.7763568394002505e-13
40
2.6999999999999957
210
3.0043543955060792e-16
220
1.2621774483536192e-29
230
1
0
CIRCLE
5
106
100
AcDbEntity
8
0
100
AcDbCircle
10
-5.0490843346476879
20
-131.9145699907223
30
-2.1316282072803006e-13
40
2.7000000000000095
210
3.0043538661104872e-16
220
1.2621774483536192e-29
230
1
0
CIRCLE
5
107
100
AcDbEntity
8
0
100
AcDbCircle
10
-24.793012010481625
20
-166.11205586625078
30
1.0658141036401503e-13
40
2.7000000000000091
210
3.0043538661104867e-16
220
0
230
1
0
CIRCLE
5
108
100
AcDbEntity
8
0
100
AcDbCircle
10
-253.53693968644549
20
-107.66585868475499
30
0
40
2.6999999999999957
210
3.0043543955060792e-16
220
1.2621774483536192e-29
230
1
0
CIRCLE
5
109
100
AcDbEntity
8
0
100
AcDbCircle
10
-102.54908433460801
20
36.960383747266221
30
-1.7763568394002505e-13
40
2.7000000000000135
210
3.0043538661104872e-16
220
1.2621774483536192e-29
230
1
0
CIRCLE
5
110
100
AcDbEntity
8
0
100
AcDbCircle
10
-170.03693968647991
20
36.960383747266221
30
-1.7763568394002505e-13
40
2.6999999999999957
210
3.0043543955060792e-16
220
1.2621774483536192e-29
230
1
0
CIRCLE
5
111
100
AcDbEntity
8
0
100
AcDbCircle
10
-219.79301201053966
20
-166.23753743528351
30
1.4210854715202004e-13
40
2.6999999999999957
210
3.0043543955060792e-16
220
1.2621774483536192e-29
230
1
0
CIRCLE
5
112
100
AcDbEntity
8
0
100
AcDbCircle
10
-19.049084334642423
20
-107.66585868475497
30
-7.1054273576010019e-14
40
2.7000000000000113
210
3.0043538661104872e-16
220
1.2621774483536192e-29
230
1
0
CIRCLE
5
113
100
AcDbEntity
8
0
100
AcDbCircle
10
-136.12413165627731
20
-78.973969713244685
30
6.9988459472369868e-12
40
8.75
210
5.2939559203393759e-23
220
0
230
1
0
ENDSEC
0
SECTION
2
OBJECTS
0
DICTIONARY
5
C
100
AcDbDictionary
3
ACAD_GROUP
350
D
3
ACAD_MLINESTYLE
350
17
0
DICTIONARY
5
D
100
AcDbDictionary
0
DICTIONARY
5
1A
330
C
100
AcDbDictionary
0
DICTIONARY
5
17
100
AcDbDictionary
0
ENDSEC
0
EOF
